<svg xmlns="http://www.w3.org/2000/svg" viewBox="0 0 1184.63 258.32"><defs><style>.cls-1{fill:#ff2424;}</style></defs><g id="Layer_2" data-name="Layer 2"><g id="Layer_1-2" data-name="Layer 1"><path class="cls-1" d="M105.84,164.94v.94a3.51,3.51,0,0,1-.31,1.24l.1-.1c-1,3.74-3.53,5.61-7.37,5.61H15.89a36,36,0,0,0,3.64,11,38.69,38.69,0,0,0,7.37,9.45,36.17,36.17,0,0,0,26,10.59,35.8,35.8,0,0,0,9-1.14,46.46,46.46,0,0,0,8.41-3.11h-.11a39.09,39.09,0,0,0,7.38-5,35.64,35.64,0,0,0,6.13-6.85A8.47,8.47,0,0,1,89,184.47h1.15a8.22,8.22,0,0,1,4.26,1.24,7.22,7.22,0,0,1,3.42,5,2.78,2.78,0,0,1,.21.73v.83a7.59,7.59,0,0,1-1.45,4.36A51.71,51.71,0,0,1,88.18,206a55.64,55.64,0,0,1-10.49,7.17,52.83,52.83,0,0,1-24.62,6.12,51,51,0,0,1-37.59-15.58A51.38,51.38,0,0,1,0,166.19v-1.56C0,150.4,5.71,138,16.1,128a51,51,0,0,1,37-15c14.44,0,26.8,4.88,37.09,15a53.85,53.85,0,0,1,11.63,16.82,49.79,49.79,0,0,1,4.26,20.26v.2Zm-16.31-7.37a37.33,37.33,0,0,0-4.36-10.29,39.91,39.91,0,0,0-6.86-8.72,35.31,35.31,0,0,0-11.84-7.17,38.2,38.2,0,0,0-13.71-2.49c-9.45,0-17.86,3.33-25.34,10v-.1a37.29,37.29,0,0,0-11.22,19H89.43Z"/><path class="cls-1" d="M234.14,211.58a7.61,7.61,0,0,1-7.59,7.68,7.17,7.17,0,0,1-7.78-7.68v-8c-1.46,1.35-3.12,2.8-5,4.26s-3.53,2.6-5,3.53a52.84,52.84,0,0,1-13.09,5.92,53.15,53.15,0,0,1-51.93-13.61,52.9,52.9,0,0,1,0-74.78,50.65,50.65,0,0,1,37.49-15.58c14.65,0,27.32,5.09,37.6,15.58s15.48,23,15.48,37.39v45.49ZM208,192.88a36,36,0,0,0,11-26.48,37.09,37.09,0,0,0-11-26.8,36.36,36.36,0,0,0-26.69-10.91,35.92,35.92,0,0,0-26.59,10.91,36.8,36.8,0,0,0-11,26.69,37.59,37.59,0,0,0,37.6,37.6A36,36,0,0,0,208,192.88Z"/><path class="cls-1" d="M336.16,204.1a7.64,7.64,0,0,1,5.3,2.28,7.12,7.12,0,0,1,2.39,5.4,7,7,0,0,1-2.5,5.62,7.9,7.9,0,0,1-5.19,2.07H262.41a6.67,6.67,0,0,1-4.05-1.14,9.75,9.75,0,0,1-2.8-3.33,5.21,5.21,0,0,1-.52-1.55,11,11,0,0,1-.21-1.67,6.84,6.84,0,0,1,.42-2.38A7.81,7.81,0,0,1,256.6,207l31.57-38.95,32-39.57H262.62a7.25,7.25,0,0,1-5.4-2.18,7.49,7.49,0,0,1-2.28-5.51,7,7,0,0,1,2.59-5.92c.11-.11.21-.21.32-.21a7,7,0,0,1,4.67-1.66h73.85c3.22,0,5.5,1.56,7,4.78v.62l-.11-.31a6,6,0,0,0,.52,1.45,2.72,2.72,0,0,1,.31,1.14,6.92,6.92,0,0,1-.41,2.4,7.54,7.54,0,0,1-1.35,2.28l-31.58,38.85-31.78,39.57h57.44Z"/><path class="cls-1" d="M472.15,118.41a7,7,0,0,1,.52,2.7,3.74,3.74,0,0,1-.11,1.35,7,7,0,0,0-.31.73,1.65,1.65,0,0,0-.31.62,1.65,1.65,0,0,1-.31.62L407.34,254a8.42,8.42,0,0,1-2.91,3.12,7.28,7.28,0,0,1-4.16,1.25,7.38,7.38,0,0,1-3.32-.73,6.61,6.61,0,0,1-2.6-2.08,12.41,12.41,0,0,1-1.56-2.8,18,18,0,0,1-.2-2.5,8.26,8.26,0,0,1,.83-3.42l14.64-29.39-16.51-37.29-12.68-28.36L366.31,123.5v-.62a7.6,7.6,0,0,1-.21-1.56v-1.25a.4.4,0,0,1,.1-.31c.94-3,2.5-5,4.57-5.82a9.41,9.41,0,0,1,3.12-.62,1.09,1.09,0,0,1,.52.11c.21.1.52.2.83.31.1.1.42.1.93.1a8.94,8.94,0,0,1,2.7,1.87,11.46,11.46,0,0,1,1.88,2.39l8.51,19,8,17.86,4.88,10.8,4.68,10.6,4.88,11,5.4,11.94,13.6-27.52,13.82-27.74L451,131l6.65-13.51a8.11,8.11,0,0,1,1.86-2.49,9,9,0,0,1,2.81-1.55h-.1a4.86,4.86,0,0,1,1.35-.42,6.61,6.61,0,0,1,1.35-.1,11,11,0,0,1,1.76.1,6.52,6.52,0,0,1,1.87.62,9.22,9.22,0,0,1,3.85,4.47l-.11-.11Z"/><path d="M538.13,113.11c11.94,0,22.12,4.36,30.74,12.88s13,18.7,13,31a8,8,0,0,1-7.79,7.59,8.31,8.31,0,0,1-5.3-1.87,9.22,9.22,0,0,1-2.28-5.72,27.6,27.6,0,0,0-8.41-20.25,27.6,27.6,0,0,0-20.05-8.2,27.19,27.19,0,0,0-20,8.2,27.57,27.57,0,0,0-8.42,20.25v55.57a7.43,7.43,0,0,1-2.18,5.51,8.28,8.28,0,0,1-5.4,2.18,7.33,7.33,0,0,1-5.61-2.29,10.29,10.29,0,0,1-1.56-2.49,7.54,7.54,0,0,1-.62-3v-56.3c0-12.15,4.67-22.22,13.09-30.53,8.62-8.31,18.8-12.67,30.74-12.67Z"/><path d="M714.62,164.94v.94a3.57,3.57,0,0,1-.32,1.24l.11-.1a7,7,0,0,1-7.38,5.61H624.67a36,36,0,0,0,3.64,11,38.69,38.69,0,0,0,7.37,9.45,36.17,36.17,0,0,0,26,10.59,35.75,35.75,0,0,0,9-1.14,46.18,46.18,0,0,0,8.41-3.11H679a39.09,39.09,0,0,0,7.38-5,35.27,35.27,0,0,0,6.12-6.85,8.49,8.49,0,0,1,5.3-3.12h1.14a8.17,8.17,0,0,1,4.26,1.24,7.21,7.21,0,0,1,3.43,5,2.78,2.78,0,0,1,.21.73v.83a7.53,7.53,0,0,1-1.46,4.36A51.29,51.29,0,0,1,697,206a55.64,55.64,0,0,1-10.49,7.17,52.83,52.83,0,0,1-24.62,6.12,53,53,0,0,1-53.07-53.07v-1.56c0-14.23,5.71-26.59,16.1-36.66a51,51,0,0,1,37-15c14.44,0,26.8,4.88,37.08,15a53.72,53.72,0,0,1,11.64,16.82,49.79,49.79,0,0,1,4.25,20.26v.2Zm-16.31-7.37A37.64,37.64,0,0,0,694,147.28a40.53,40.53,0,0,0-6.86-8.72,35.51,35.51,0,0,0-11.84-7.17,38.2,38.2,0,0,0-13.71-2.49c-9.45,0-17.87,3.33-25.34,10v-.1a37.29,37.29,0,0,0-11.22,19h73.23Z"/><path d="M826.71,196.41v.21a6.77,6.77,0,0,1,1.15,2.29,11.71,11.71,0,0,1,.31,2.9,5.86,5.86,0,0,1-3,5.2l.1-.11a50.38,50.38,0,0,1-33.13,11.84c-14.44,0-27-5-37.39-15.37a52.77,52.77,0,0,1,0-74.68c10.49-10.28,23-15.47,37.39-15.47a52.35,52.35,0,0,1,17.45,3A54,54,0,0,1,825,124.64a9.28,9.28,0,0,1,2.18,2.39,6.79,6.79,0,0,1,.52,6.23,11.72,11.72,0,0,1-1.24,2.6,8.49,8.49,0,0,1-2.08,1.77,7.07,7.07,0,0,1-2.81.83h-1a7.78,7.78,0,0,1-4.68-1.67,42.2,42.2,0,0,0-11.22-6.12,35.74,35.74,0,0,0-12.25-2.18A37.57,37.57,0,0,0,754.84,166a37.4,37.4,0,0,0,37.5,37.39A36.37,36.37,0,0,0,816,195.06a7.18,7.18,0,0,1,4.47-1.76h1a7.83,7.83,0,0,1,5.3,3.11Z"/><path d="M901.52,113.11c12,0,22.13,4.36,30.75,12.88s13,18.7,13,31a8,8,0,0,1-7.79,7.59,8.31,8.31,0,0,1-5.3-1.87,9.22,9.22,0,0,1-2.28-5.72,27.64,27.64,0,0,0-8.41-20.25,27.6,27.6,0,0,0-20.05-8.2,27.21,27.21,0,0,0-20,8.2A27.6,27.6,0,0,0,873,156.94v55.57a7.43,7.43,0,0,1-2.18,5.51,8.31,8.31,0,0,1-5.4,2.18,7.33,7.33,0,0,1-5.61-2.29,10.29,10.29,0,0,1-1.56-2.49,7.38,7.38,0,0,1-.62-3v-56.3c0-12.15,4.67-22.22,13.08-30.53,8.63-8.31,18.81-12.67,30.75-12.67Z"/><path d="M1052.05,113a6.83,6.83,0,0,1,5.5,2.39,8.24,8.24,0,0,1,2.18,5.29v55.05a41,41,0,0,1-13,30.54c-8.72,8.42-19,12.78-31.06,12.78a44.49,44.49,0,0,1-40.61-26.18,40.72,40.72,0,0,1-3.42-16.41V120.69a6.91,6.91,0,0,1,2.28-5.29,7.64,7.64,0,0,1,5.5-2.39,7.19,7.19,0,0,1,5.72,2.49,3.93,3.93,0,0,1,.2.63,6.72,6.72,0,0,1,1.15,2.28,10.11,10.11,0,0,1,.31,2.49v55a26.26,26.26,0,0,0,8.52,19.63,28.23,28.23,0,0,0,20.25,8.31,28.76,28.76,0,0,0,10.91-2.08,31,31,0,0,0,9.45-6.23,26.5,26.5,0,0,0,8.31-19.63v-55a7.23,7.23,0,0,1,2.28-5.29,7.69,7.69,0,0,1,5.4-2.39Z"/><path d="M1093.52,91.25c2.28,0,4.46,1.22,6.44,3.79a19.68,19.68,0,0,1,.93,2.21,9.92,9.92,0,0,1,.42,3.3V210.09a10,10,0,0,1-.42,3.3,10.23,10.23,0,0,1-1,2.2q-3,3.67-6.24,3.67a7.31,7.31,0,0,1-5.29-2.81,9.2,9.2,0,0,1-2.5-6.49V100.43a8.87,8.87,0,0,1,2.5-6.36,7.29,7.29,0,0,1,5.29-2.82Z"/><path d="M1176.74,203.68a7.68,7.68,0,0,1,5.5,2.39,7.09,7.09,0,0,1,2.39,5.41,7.68,7.68,0,0,1-2.39,5.6,7.51,7.51,0,0,1-5.61,2.18c-15,0-27.73-5.08-38.43-15.58a57,57,0,0,1-11.94-17.34,51.2,51.2,0,0,1-4.68-20.88V119.27a8.45,8.45,0,0,1,2.39-5.61,8.31,8.31,0,0,1,11.22,0,7.63,7.63,0,0,1,2.18,5.61V148h30.54a8.49,8.49,0,0,1,5.61,2.38,7.56,7.56,0,0,1,2.18,5.51,8,8,0,0,1-2.18,5.71,9.18,9.18,0,0,1-5.61,2.08h-30.54v.86a39.2,39.2,0,0,0,39.26,39.05Z"/><path d="M1093.53,0a51.76,51.76,0,1,0,51.75,51.76A51.76,51.76,0,0,0,1093.53,0Zm0,90.58a38.82,38.82,0,1,1,38.81-38.82A38.82,38.82,0,0,1,1093.53,90.58Z"/><path d="M1069.69,72.11a5.51,5.51,0,0,1-4.93-3c-2.89-5.78-5.34-18.55-.27-30.08,3.89-8.84,11.52-15.1,22.06-18.12a5.52,5.52,0,1,1,3,10.61c-7.39,2.11-12.44,6.13-15,12-3.61,8.21-1.48,17.66,0,20.71a5.52,5.52,0,0,1-2.46,7.4A5.62,5.62,0,0,1,1069.69,72.11Z"/></g></g></svg>